<?xml version="1.0" standalone="no"?>
<!DOCTYPE svg PUBLIC "-//W3C//DTD SVG 20010904//EN"
 "http://www.w3.org/TR/2001/REC-SVG-20010904/DTD/svg10.dtd">
<svg version="1.0" xmlns="http://www.w3.org/2000/svg"
 width="300.000000pt" height="82.000000pt" viewBox="0 0 300.000000 82.000000"
 preserveAspectRatio="xMidYMid meet">
<metadata>
Created by potrace 1.10, written by Peter Selinger 2001-2011
</metadata>
<g transform="translate(0.000000,82.000000) scale(0.050000,-0.050000)"
fill="#989898" stroke="none">
<path d="M2207 1359 c-225 -68 -214 -334 16 -410 172 -56 217 -84 217 -138 0
-172 -264 -134 -340 49 -43 104 -85 77 -77 -50 7 -114 -7 -132 -68 -85 -18 14
-86 160 -152 325 -170 430 -187 430 -362 -1 -113 -276 -135 -316 -184 -333
-98 -34 -62 -56 93 -56 148 0 200 27 100 52 -57 14 -58 19 -28 105 36 104 246
97 291 -10 31 -75 17 -106 -48 -107 -14 0 -25 -10 -25 -21 0 -14 88 -21 255
-20 140 0 311 -5 380 -12 386 -37 465 326 97 442 -169 53 -221 166 -97 213 81
31 209 -64 250 -186 20 -61 55 18 55 123 l0 117 -75 -2 c-41 -1 -111 4 -155
11 -44 7 -109 4 -143 -6z m-592 -309 l40 -110 -87 0 c-101 0 -99 -6 -53 122
43 123 50 122 100 -12z"/>
<path d="M2941 1358 c-229 -69 -328 -317 -216 -539 113 -224 447 -247 594 -41
66 94 6 103 -84 13 -173 -173 -355 -55 -355 230 0 316 267 411 360 128 40
-122 80 -88 80 69 l0 138 -75 -1 c-41 0 -111 5 -155 11 -44 7 -111 3 -149 -8z"/>
<path d="M3380 1331 c0 -15 20 -31 45 -35 44 -6 45 -13 51 -290 l5 -285 -50
-13 c-125 -31 -26 -48 279 -48 301 0 330 3 330 35 0 19 6 69 13 110 17 103
-29 100 -89 -5 -46 -82 -81 -95 -224 -82 -67 7 -79 32 -80 167 0 124 10 133
109 95 28 -10 60 -42 71 -70 36 -94 60 -54 60 100 0 153 -20 186 -62 105 -74
-140 -178 -108 -178 55 l0 130 99 0 c89 0 105 -7 155 -70 74 -93 86 -89 86 30
l0 100 -310 0 c-256 0 -310 -5 -310 -29z"/>
<path d="M4080 1330 c0 -16 12 -30 27 -30 74 0 93 -66 93 -318 l0 -245 -60
-23 c-99 -38 -69 -54 100 -54 157 0 212 26 110 52 -29 7 -54 30 -59 55 -16 73
-22 393 -8 388 8 -3 106 -120 218 -261 274 -343 279 -343 290 54 9 301 18 339
90 358 34 9 39 0 39 -80 0 -103 19 -104 84 -6 31 46 66 72 102 76 l54 7 0
-291 0 -291 -50 -13 c-124 -31 -46 -58 150 -52 205 7 245 24 140 61 l-60 21 0
282 0 283 65 -7 c52 -5 73 -21 105 -81 58 -109 90 -97 90 35 l0 110 -500 -1
c-425 0 -500 -5 -500 -30 0 -16 13 -29 29 -29 68 0 91 -59 91 -234 l0 -172
-185 233 -185 233 -135 0 c-107 0 -135 -6 -135 -30z"/>
<path d="M475 1125 c-118 -119 -215 -227 -215 -240 0 -41 41 -28 113 35 l68
60 269 0 269 0 71 -63 c51 -44 78 -57 93 -42 18 18 -385 439 -440 460 -8 3
-110 -92 -228 -210z m335 15 l98 -100 -208 0 -208 0 98 100 c54 55 104 100
110 100 6 0 56 -45 110 -100z"/>
<path d="M640 1130 l-47 -50 107 0 107 0 -47 50 c-26 28 -53 50 -60 50 -7 0
-34 -22 -60 -50z"/>
<path d="M617 849 c-9 -111 -11 -109 96 -109 l87 0 0 100 0 100 -88 0 -88 0
-7 -91z"/>
</g>
</svg>
